<svg xmlns="http://www.w3.org/2000/svg" xmlns:xlink="http://www.w3.org/1999/xlink" xmlns:serif="http://www.serif.com/" viewBox="4 -2 23 38" version="1.1" xml:space="preserve" style="" x="0px" y="0px" fill-rule="evenodd" clip-rule="evenodd" stroke-linejoin="round" stroke-miterlimit="2">
	<path fill="white" d="M28.75,16l-0,-10c0,-0.729 -0.29,-1.429 -0.805,-1.945c-0.516,-0.515 -1.216,-0.805 -1.945,-0.805c-4.52,0 -15.48,0 -20,0c-0.729,-0 -1.429,0.29 -1.945,0.805c-0.515,0.516 -0.805,1.216 -0.805,1.945c-0,4.52 -0,15.48 -0,20c-0,0.729 0.29,1.429 0.805,1.945c0.516,0.515 1.216,0.805 1.945,0.805c2.282,0 6.206,0 10.114,0c0.414,0 0.75,-0.336 0.75,-0.75c-0,-0.414 -0.336,-0.75 -0.75,-0.75c-3.908,0 -7.832,0 -10.114,0c-0.332,0 -0.649,-0.132 -0.884,-0.366c-0.234,-0.235 -0.366,-0.552 -0.366,-0.884c-0,-4.52 -0,-15.48 -0,-20c-0,-0.332 0.132,-0.649 0.366,-0.884c0.235,-0.234 0.552,-0.366 0.884,-0.366c4.52,0 15.48,0 20,0c0.332,-0 0.649,0.132 0.884,0.366c0.234,0.235 0.366,0.552 0.366,0.884c-0,2.26 -0,6.13 -0,10c-0,0.414 0.336,0.75 0.75,0.75c0.414,-0 0.75,-0.336 0.75,-0.75Z" />
	<path fill="white" d="M18.869,18.642c-2.107,2.106 -2.107,5.527 0,7.634c2.107,2.107 5.528,2.107 7.635,0c2.106,-2.107 2.106,-5.528 -0,-7.634c-2.107,-2.107 -5.528,-2.107 -7.635,-0Zm1.061,1.06c1.521,-1.521 3.992,-1.521 5.513,0c1.521,1.522 1.521,3.992 -0,5.513c-1.521,1.522 -3.992,1.522 -5.513,0c-1.522,-1.521 -1.522,-3.991 -0,-5.513Z" />
	<path fill="white" d="M25.443,26.276l2.443,2.443c0.293,0.293 0.768,0.293 1.061,-0c0.292,-0.293 0.292,-0.768 -0,-1.061l-2.443,-2.443c-0.293,-0.292 -0.768,-0.292 -1.061,0c-0.293,0.293 -0.293,0.768 -0,1.061Z" />
	<path fill="white" d="M8.5,13.524l9,0c0.414,0 0.75,-0.336 0.75,-0.75c0,-0.414 -0.336,-0.75 -0.75,-0.75l-9,0c-0.414,0 -0.75,0.336 -0.75,0.75c0,0.414 0.336,0.75 0.75,0.75Z" />
	<path fill="white" d="M8.5,17.298l7.825,0c0.414,0 0.75,-0.336 0.75,-0.75c-0,-0.413 -0.336,-0.75 -0.75,-0.75l-7.825,0c-0.414,0 -0.75,0.337 -0.75,0.75c-0,0.414 0.336,0.75 0.75,0.75Z" />
	<path fill="white" d="M8.5,9.75l11,0c0.414,-0 0.75,-0.336 0.75,-0.75c-0,-0.414 -0.336,-0.75 -0.75,-0.75l-11,0c-0.414,-0 -0.75,0.336 -0.75,0.75c-0,0.414 0.336,0.75 0.75,0.75Z" />
	<text x="0" y="47" fill="000000" font-size="5px" font-weight="bold" font-family="'Helvetica Neue', Helvetica, Arial-Unicode, Arial, Sans-serif">
		Created by zafdesign
	</text>
	<text x="0" y="52" fill="000000" font-size="5px" font-weight="bold" font-family="'Helvetica Neue', Helvetica, Arial-Unicode, Arial, Sans-serif">
		from the Noun Project
	</text>
</svg>
